<svg id="Capa_1" enable-background="new 0 0 511.367 511.367" height="512" viewBox="0 0 511.367 511.367" width="512" xmlns="http://www.w3.org/2000/svg"><g><g><path d="m504.122 441.683c-6.065-82.998-57.087-160.385-130.594-199.24-3.253-1.759-6.598-3.383-9.886-5.049-.426-.335-.322-.15-.311-.771.047-2.575.057-5.15.025-7.725-.327-74.264-36.479-146.861-94.903-192.561-8.761-8.418-21.279-7.9-29.806.669-38.028 30.254-66.988 71.768-81.984 118.009-8.664 26.675-12.727 54.809-11.997 82.843.01.649.163.908-.325 1.239-3.021 1.797-6.345 3.172-9.384 4.973-61.885 34.039-107.858 95.425-122.658 164.53-2.107 9.524-3.567 19.178-4.571 28.878-3.056 16.554 5.792 24.318 20.882 28.613 69.489 25.687 150.303 18.294 213.644-20.275 4.067-2.169 7.911-5.434 11.899-7.45 1.258.652 2.385 1.861 3.687 2.525 66.438 44.087 154.388 52.483 228.225 22.641 9.962-2.994 19.246-10.425 18.057-21.849zm-257.654-58.789c-30.579-29.882-51.428-68.398-59.646-110.239-1.065-5.421 2.134-10.771 7.418-12.383 38.225-11.768 81.049-12.132 119.502-1.026 5.348 1.531 8.622 6.906 7.579 12.369-8.07 42.263-29 81.164-59.874 111.31-4.159 4.062-10.823 4.031-14.979-.031zm14.938-301.897c38.503 37.378 61.086 87.502 63.442 141.598-45.626-13.306-96.403-12.933-141.796 1.05 2.108-54.497 24.731-105.028 63.483-142.647 4.131-4.009 10.741-4.01 14.871-.001zm-205.267 353.81c-5.321-1.523-8.624-6.861-7.591-12.298 10.819-58.925 48.866-112.51 100.682-142.487 9.96 50.711 35.611 97.305 73.27 132.975-48.756 29.788-111.204 37.81-166.361 21.81zm337.634 8.078c-38.103.062-75.735-10.201-108.328-29.888 38.142-36.115 63.934-83.374 73.621-134.795 53.094 29.451 92.417 83.55 103.674 143.265 1.053 5.397-2.17 10.713-7.431 12.317-19.825 6.047-40.437 9.101-61.536 9.101z" fill="#c1e9af"/><g fill="#ade194"><path d="m249.771 385.323.151-.165c-1.253-.51-2.43-1.264-3.454-2.264-30.579-29.882-51.428-68.398-59.646-110.239-.324-1.649-.248-3.29.156-4.822-.074.017-.147.035-.221.052-12.729 3.031-20.291 16.074-16.959 28.728 8.684 32.989 25.315 63.478 48.391 88.72 8.451 9.246 23.129 9.235 31.582-.01z"/><path d="m56.139 434.807c-5.321-1.523-8.624-6.861-7.591-12.298 5.723-30.138 18.001-58.74 36.098-83.792 12.654-17.517 27.862-32.89 45-45.684-.137-.671-.283-1.339-.415-2.011-25.25 14.803-47.294 34.758-64.585 58.695-18.096 25.052-30.374 53.655-36.098 83.792-1.032 5.437 2.27 10.775 7.591 12.298 18.752 5.368 38.186 8.078 58.031 8.078 38.723 0 75.735-10.275 108.33-29.889-.094-.089-.185-.18-.279-.27-27.345 12.609-57.152 19.158-88.051 19.158-19.845.001-39.279-2.709-58.031-8.077z"/><path d="m234.153 449.367c-.801-.128-1.835 1.058-2.484 1.489-2.625 1.743-5.287 3.426-7.974 5.07.409-.199.822-.391 1.231-.593 3.433-1.695 6.817-3.495 10.161-5.365-.301-.273-.63-.553-.934-.601z"/><path d="m504.122 441.683c-1.972-24.391-7.566-48.47-16.562-71.228-9.017-22.812-21.41-44.667-36.932-63.701-8.601-10.547-17.804-20.454-27.87-29.623-10.031-9.138-20.885-17.322-32.262-24.705-5.502-3.57-11.187-6.89-16.969-9.984-2.949-1.578-5.936-3.078-8.93-4.568-.292-.145-.702-.28-.958-.481-.426-.335-.322-.15-.311-.771.014-.836.027-1.672.034-2.509.015-1.739.011-3.478-.009-5.216-.154-12.844-1.269-25.677-3.381-38.347-4.173-25.033-12.282-49.35-23.85-71.935-10.908-21.297-24.942-40.984-41.427-58.325-8.167-8.591-16.94-16.609-26.245-23.955-2.246-1.773-4.449-3.571-7.115-4.681-2.476-1.032-5.165-1.532-7.846-1.465-2.688.067-5.354.705-7.78 1.865-2.605 1.245-4.822 3.163-7.065 4.95-1.72 1.37-3.415 2.771-5.098 4.187 2.663-.059 5.331.439 7.79 1.464 2.666 1.111 4.869 2.908 7.115 4.681 9.304 7.346 18.077 15.363 26.245 23.955 16.485 17.34 30.519 37.028 41.427 58.325 11.568 22.585 19.677 46.902 23.85 71.935 2.112 12.671 3.227 25.504 3.381 38.347.021 1.739.024 3.478.009 5.216-.008.836-.021 1.673-.034 2.509-.01.621-.115.436.311.771.255.201.666.336.958.481 2.994 1.49 5.98 2.99 8.93 4.568 5.782 3.094 11.467 6.414 16.969 9.984 11.377 7.383 22.23 15.566 32.262 24.705 10.066 9.169 19.269 19.076 27.87 29.623 15.522 19.034 27.915 40.889 36.932 63.701 8.996 22.758 14.59 46.837 16.562 71.228.376 4.65-1.013 9.333-3.812 13.054 1.926-.714 3.846-1.442 5.754-2.204 5.084-2.03 10.273-3.85 13.833-8.232 3.088-3.804 4.619-8.736 4.224-13.619z"/></g></g><g><path d="m393.671 488.668c-49.396.076-98.484-14.279-139.702-41.367-44.322 28.945-96.028 43.044-148.838 41.206-4.14-.143-7.38-3.614-7.237-7.753.142-4.141 3.663-7.366 7.753-7.238 50.384 1.751 99.751-11.877 141.792-39.892 3.962-3.869 9.467-3.534 13.804.515 66.393 44.211 161.645 54.212 232.836 16.414 1.872-2.308 2.809-5.327 2.57-8.285-6.077-81.084-55.335-155.377-126.656-193.233-5.366-3.591-14.582-4.628-14.157-12.622.758-39.769-8.157-78.906-26.384-114.399-4.447-8.558 8.833-15.671 13.352-6.837 18.722 36.487 28.211 76.543 28.072 117.43 56.501 28.67 100.07 75.574 123.663 135.071 7.275 19.887 26.217 75.669 11.185 92.33-21.232 19.994-82.966 28.996-112.053 28.66zm-146.15-55.08c-.003.002-.006.004-.009.006.003-.002.006-.004.009-.006zm-171.045 52.238c-17.916-2.389-35.49-7.2-52.333-13.395-11.403-3.194-22.609-11.18-24.143-23.782 2.14-89.264 57.899-173.195 137.083-214.23-1.144-81.268 38.612-162.611 105.396-209.152 9.92-5.119 22.874-2.205 30.622 5.164 20.257 15.984 38.272 35.285 52.89 56.572 2.346 3.414 1.479 8.083-1.935 10.429-3.415 2.346-8.084 1.48-10.429-1.935-13.768-20.05-30.744-38.239-49.821-53.294-3.284-2.717-6.06-4.679-10.126-4.535-4.171.017-7.105 2.503-10.36 5.183-58.536 46.216-93.547 119.952-91.155 194.796-.104 9.336-8.033 8.971-13.577 12.967-69.297 38.133-116.393 110.111-123.49 188.442-2.351 11.226 3.827 16.423 14.123 19.259 15.576 5.813 31.814 10.09 48.372 12.595 9.047 1.222 7.894 15.047-1.117 14.916zm317.298-35.461c-39.498.05-78.407-10.534-112.195-30.962-2.008-1.208-3.336-3.286-3.589-5.616s.598-4.645 2.3-6.256c36.715-34.764 62.074-81.193 71.407-130.737.788-4.904 6.774-7.716 11.048-5.148 55.238 30.645 95.478 86.361 107.357 148.365 1.793 9.192-3.626 18.189-12.604 20.927-20.509 6.255-41.949 9.427-63.724 9.427zm-96.011-38.999c46.785 25.497 104.526 30.847 155.358 15.225 1.604-.489 2.574-2.083 2.258-3.708-10.397-54.249-44.283-103.708-91.137-132.891-10.583 45.432-33.837 87.891-66.479 121.374zm-183.592 38.999c-20.478 0-40.697-2.815-60.095-8.368-9.119-2.61-14.663-11.599-12.896-20.907 11.424-61.196 50.348-116.36 104.257-147.559 4.247-2.64 10.324.075 11.152 5.025 9.733 49.558 34.309 94.157 71.068 128.975 1.702 1.612 2.552 3.926 2.299 6.256s-1.581 4.408-3.589 5.616c-33.662 20.256-72.459 30.962-112.196 30.962zm-55.967-22.788c49.974 14.487 106.403 8.529 151.969-16.212-32.558-33.295-55.182-74.22-66.008-119.396-45.583 29.58-78.264 78.465-88.247 131.921-.307 1.612.698 3.232 2.286 3.687zm195.784-34.179c-4.619 0-9.24-1.72-12.761-5.161-31.85-31.124-53.207-70.599-61.764-114.157-1.813-9.232 3.6-18.261 12.591-21.002 39.68-12.19 83.85-12.563 123.753-1.062 9.129 2.613 14.667 11.635 12.882 20.986-8.403 44.01-29.843 83.87-62.002 115.27-3.499 3.417-8.098 5.125-12.699 5.126zm1.755-134.752c-20.256 0-40.212 2.954-59.313 8.78-1.607.49-2.573 2.108-2.248 3.764 7.968 40.564 27.861 77.329 57.529 106.319 1.25 1.22 3.266 1.233 4.496.031 29.954-29.248 49.923-66.369 57.747-107.351 1.998-8.284-50.824-11.877-58.211-11.543zm-72.689-27.52c-4.113.087-7.752-3.654-7.495-7.79 2.174-56.218 25.525-108.686 65.754-147.738 7.099-6.893 18.222-6.891 25.318-.002 39.944 38.777 63.281 90.859 65.712 146.653.104 2.413-.958 4.728-2.855 6.221-1.898 1.493-4.4 1.981-6.719 1.311-45.201-13.43-94.721-11.923-139.715 1.345zm70.919-145.654c-37.213 31.534-57.951 79.854-62.763 128.063 40.611-10.588 84.655-10.904 125.442-.9-4.501-48.051-25.744-92.565-60.469-126.275-.608-.592-1.409-.888-2.21-.888z"/></g></g></svg>